<?xml version="1.0" encoding="utf-8"?>
<!-- Generator: Adobe Illustrator 23.0.0, SVG Export Plug-In . SVG Version: 6.00 Build 0)  -->
<svg version="1.1" id="Layer_1" xmlns="http://www.w3.org/2000/svg" xmlns:xlink="http://www.w3.org/1999/xlink" x="0px" y="0px"
	 viewBox="0 0 136.6 48.3" style="enable-background:new 0 0 136.6 48.3;" xml:space="preserve">
<style type="text/css">
	.st0{fill:none;stroke:#FFFFFF;stroke-miterlimit:10;}
</style>
<path class="st0" d="M12.1,0.8v36.5H27v9.9H0V0.8H12.1z"/>
<path class="st0" d="M55.2,0.8l11.3,46.4H53.7l-1.2-8.1h-9.6l-1.2,8.1H28.9L40,0.8H55.2z M47.6,10.3L44.3,30H51l-3.3-19.7H47.6z"/>
<path class="st0" d="M81.7,0.8l7.8,28.6h0.1V0.8H101v46.4H87.7l-8.1-28.7h-0.1v28.7H68.2V0.8H81.7z"/>
<path class="st0" d="M121.9,0.8c3.5,0,6.2,0.6,8.2,1.9s3.4,3,4.4,5.1s1.6,4.6,1.8,7.4s0.3,5.7,0.3,8.7s-0.1,5.9-0.3,8.7
	s-0.8,5.3-1.8,7.4s-2.4,3.9-4.4,5.1c-1.9,1.3-4.7,1.9-8.2,1.9h-17.5V0.8H121.9z M118.8,38.5c1.2,0,2.1-0.2,2.8-0.5s1.2-1,1.6-2
	s0.6-2.5,0.7-4.4c0.1-1.9,0.2-4.4,0.2-7.5s-0.1-5.6-0.2-7.5s-0.3-3.4-0.7-4.4s-0.9-1.7-1.6-2s-1.6-0.5-2.8-0.5h-2.4v29h2.4V38.5z"/>
</svg>
