<svg xmlns="http://www.w3.org/2000/svg" viewBox="0 0 197 35"><path fill="#FFF" d="M14.91 13.465h12.498v16.33l-4.202 4.106H5.291L1 29.795V5.116L5.017 1h18.015l4.192 4.116v6.71h-7.986v-2.65H8.898v16.739h10.426v-4.282H14.91v-8.168zm15.665 8.123h12.042v-7.986H30.575v7.986zm23.283-7.9V9.213h10.434v2.619H72.5V5.118l-4.33-4.116H49.84l-4.107 4.203v12.14l4.378 4.327h14v4.292H53.767V23.44h-8.073v6.455l4.241 4.008h18.326l4.286-3.922V18.015l-4.15-4.328h-14.54zm41.305-.088H84.878V1.002h-8.136V34h8.136V21.722h10.285V34h8.122V1.002h-8.122V13.6zM129.562 1l4.287 4.244v24.551l-4.248 4.106h-18.094l-4.019-3.968-.01-.138V5.292L111.77 1h17.793zm-3.835 8.077h-10.112v16.838h10.112V9.077zM142.382 1l-4.287 4.116v24.68l4.017 4.106h18.32l4.158-4.107v-8.248h-7.9v4.416h-10.334V9.26h10.294v4.2h7.977V5.115L160.524 1h-18.142zm53.49 0h-9.928l-8.805 12.172V1h-8.307v32.902h8.307v-11.82l8.67 11.82h9.837l-11.502-16.418L195.872 1z"/></svg>