<svg xmlns="http://www.w3.org/2000/svg" viewBox="0 0 398 30"><path d="M123.496 5.033H95.489v19.949h28.007c4.936 0 8.982-1.904 9.37-4.326.019-.121 0-.243 0-.382 0-.126.019-.247 0-.368v-9.794c.019-.125 0-.246 0-.386 0-.12.019-.24 0-.367-.388-2.418-4.434-4.326-9.37-4.326zm-3.05 9.976v4.416h-12.803v-8.83h12.803v4.414zM23.323 18.15L17.661 5.064H0v19.885h12.287V12.573l6.405 12.357h8.943l6.238-11.044v11.063h12.273V5l-16.56.064zm53.612 1.44H64.441V5.09H51.94v16.162c0 2.029 3.29 3.672 7.343 3.672h22.843c4.053 0 7.345-1.643 7.345-3.672V5.09H76.935v14.5zm85.775-1.428l-5.651-13.098h-17.675v19.905h12.268V12.58l6.434 12.376h8.943l6.254-11.061V24.97h12.275V5.064H168.99zM319.895 25l34.71-.006v-5.297H332.51v-2.473h22.093v-4.269H332.51v-2.29h22.093V5.082l-34.709-.049zm-42.502-14.608h12.518V25h12.54V10.392h12.566V5.033h-37.624zM216.05 5.064h-11.324L188.77 24.975h13.262l1.802-2.55h15.06l1.826 2.55h13.265L218.022 5.064h-1.972zm-9.128 12.959l4.35-6.179 4.447 6.179h-8.797zm190.5-6.577V9.72c0-2.526-4.075-4.562-9.111-4.562h-27.89V24.93h12.16v-7.263h12.91v7.25h11.931v-6.305c0-1.58-2.138-3.007-4.55-3.303 3.28-.686 4.55-1.974 4.55-3.863zm-12.065 1.635h-12.548v-2.397h12.548v2.397zm-119.912-.146h-16.348V10.48h22.995V5.121h-26.026c-5.029 0-9.11 2.036-9.11 4.548v2.874c0 .133.018.266.047.398.392 2.335 4.3 4.155 9.063 4.155h16.41v2.455h-25.348v5.355c.056 0 .103.012.153.012h28.164c5.022 0 9.102-2.042 9.102-4.562 0 0-.017-3.126-.031-3.26-.395-2.327-4.301-4.161-9.07-4.161z" fill="#FFF"/></svg>