<?xml version="1.0" encoding="utf-8"?>
<!-- Generator: Adobe Illustrator 23.0.0, SVG Export Plug-In . SVG Version: 6.00 Build 0)  -->
<svg version="1.1" id="Layer_1" xmlns="http://www.w3.org/2000/svg" xmlns:xlink="http://www.w3.org/1999/xlink" x="0px" y="0px"
	 viewBox="0 0 87 22.2" style="enable-background:new 0 0 87 22.2;" xml:space="preserve">
<style type="text/css">
	.st0{fill:#FFFFFF;}
</style>
<path class="st0" d="M0.4,6c0.3-1.4,0.7-2.6,1.3-3.4c0.6-0.9,1.4-1.5,2.4-2C5.1,0.2,6.3,0,7.7,0s2.6,0.2,3.6,0.6s1.8,1.1,2.4,2
	s1,2,1.3,3.4s0.4,3.1,0.4,5.1s-0.1,3.7-0.4,5.1s-0.7,2.6-1.3,3.5s-1.4,1.5-2.4,1.9s-2.2,0.6-3.6,0.6S5.1,22,4.1,21.6s-1.8-1-2.4-1.9
	s-1-2-1.3-3.5C0.1,14.8,0,13.1,0,11.1S0.2,7.4,0.4,6z M5.9,14.7c0,1,0.1,1.7,0.3,2.3c0.1,0.6,0.3,1,0.6,1.2c0.2,0.2,0.6,0.3,1,0.3
	s0.8-0.1,1-0.3s0.4-0.6,0.6-1.2c0.1-0.6,0.2-1.3,0.3-2.3c0-0.9,0.1-2.1,0.1-3.6s0-2.6-0.1-3.6c0-0.9-0.1-1.7-0.3-2.3
	C9.3,4.6,9.1,4.3,8.8,4c-0.3-0.2-0.6-0.3-1-0.3S7,3.8,6.8,4C6.5,4.2,6.4,4.6,6.2,5.2C6.1,5.8,6,6.5,5.9,7.5c0,1-0.1,2.1-0.1,3.6
	S5.8,13.7,5.9,14.7z"/>
<path class="st0" d="M23.6,0.4l3.6,13.2h0.1V0.4h5.2v21.4h-6.1L22.7,8.6h-0.1v13.2h-5.2V0.4L23.6,0.4z"/>
<path class="st0" d="M41.6,5.1V0.4h13.9v4.7h-4.2v16.7h-5.6V5.1H41.6z"/>
<path class="st0" d="M62.3,0.4v7.9h3.4V0.4h5.6v21.4h-5.6V13h-3.4v8.8h-5.6V0.4L62.3,0.4z"/>
<path class="st0" d="M86.7,0.4V5h-7.1v3.7h6.7v4.4h-6.7v4.3H87V22H74V0.4L86.7,0.4z"/>
</svg>
